# xmcd
#
# Track frame offsets: 
#        150
#        13939
#        25321
#        35668
#        51763
#        66197
#        76997
#        87978
#        103167
#        113445
#        130356
#        142605
#
# Disc length: 2059 seconds
#
# Revision: 0
# Processed by: cddbd v1.5.2PL0 Copyright (c) Steve Scherf et al.
# Submitted via: ExactAudioCopy v0.99pb4
#
DISCID=9a08090c
DTITLE=Alpen Casanovas - Du bist mein Morgenstern
DYEAR=1990
DGENRE=National Folk
TTITLE0=Alpen Casanovas - 01 - Du bist mein Morgenstern
TTITLE1=Alpen Casanovas - 02 - Schützen Boarischer
TTITLE2=Alpen Casanovas - 03 - Ja heut gehts auf
TTITLE3=Alpen Casanovas - 04 - Mondschein bei Nacht
TTITLE4=Alpen Casanovas - 05 - Der Paul und sein Gaul
TTITLE5=Alpen Casanovas - 06 - Wie a Sterndl am Himmel
TTITLE6=Alpen Casanovas - 07 - Bei Dir sein ist schön
TTITLE7=Alpen Casanovas - 08 - Die Romantik ist Vergangenheit
TTITLE8=Alpen Casanovas - 09 - Wallberg Landler
TTITLE9=Alpen Casanovas - 10 - Schenk vom Glück mir ein Stück
TTITLE10=Alpen Casanovas - 11 - Schiflitzer
TTITLE11=Alpen Casanovas - 12 - Immer wenn ich so träume
EXTD=
EXTT0=
EXTT1=
EXTT2=
EXTT3=
EXTT4=
EXTT5=
EXTT6=
EXTT7=
EXTT8=
EXTT9=
EXTT10=
EXTT11=
PLAYORDER=
